<?xml version="1.0" standalone="no"?>
<!DOCTYPE svg PUBLIC "-//W3C//DTD SVG 20010904//EN"
 "http://www.w3.org/TR/2001/REC-SVG-20010904/DTD/svg10.dtd">
<svg version="1.0" xmlns="http://www.w3.org/2000/svg"
 width="720.000000pt" height="888.000000pt" viewBox="0 0 720.000000 888.000000"
 preserveAspectRatio="xMidYMid meet">

<g transform="translate(0.000000,888.000000) scale(0.100000,-0.100000)"
fill="#000000" stroke="none">
<path d="M3643 7871 c-29 -4 -58 -12 -65 -19 -6 -6 -23 -12 -37 -12 -15 0 -69
-14 -121 -31 -52 -16 -107 -31 -122 -32 -16 -1 -28 -5 -28 -9 0 -5 -4 -8 -9
-8 -12 0 -71 -27 -106 -50 -16 -10 -38 -19 -47 -19 -10 -1 -26 -9 -36 -18 -35
-33 -64 -46 -72 -32 -6 9 -12 9 -24 -3 -8 -9 -12 -19 -8 -23 4 -5 2 -5 -5 -2
-14 9 -45 -2 -38 -13 3 -4 -7 -11 -22 -15 -26 -6 -74 -36 -101 -62 -8 -8 -28
-21 -45 -30 -18 -8 -36 -22 -40 -30 -5 -8 -27 -27 -49 -43 -32 -23 -44 -27
-54 -19 -11 9 -14 7 -14 -10 0 -12 -6 -21 -14 -21 -8 0 -21 -6 -28 -12 -7 -7
-30 -28 -51 -45 -21 -18 -35 -33 -32 -33 3 0 1 -9 -5 -20 -6 -11 -15 -20 -21
-20 -10 0 -59 -50 -125 -128 -16 -19 -50 -55 -75 -80 -26 -26 -59 -67 -75 -91
-16 -25 -39 -55 -51 -67 -13 -13 -23 -30 -23 -38 0 -9 -9 -21 -20 -28 -11 -7
-20 -18 -20 -24 0 -6 -9 -23 -21 -38 -28 -35 -149 -236 -149 -246 0 -5 6 -11
13 -14 6 -3 3 -4 -7 -3 -15 1 -28 -14 -53 -63 -18 -35 -33 -71 -33 -78 0 -8
-11 -35 -25 -61 -14 -25 -35 -75 -48 -110 -20 -54 -26 -61 -34 -46 -10 17 -11
17 -22 -3 -8 -15 -8 -21 1 -24 8 -3 8 -9 1 -22 -5 -10 -13 -16 -16 -14 -9 4
-57 -63 -57 -80 0 -21 29 5 42 38 8 21 11 23 19 9 6 -12 -2 -42 -31 -107 -22
-49 -40 -95 -40 -101 0 -7 -4 -10 -9 -6 -5 3 -15 -12 -21 -32 -7 -21 -36 -87
-65 -148 -73 -154 -94 -218 -75 -230 5 -3 10 -16 9 -28 0 -21 -1 -21 -12 3
-11 24 -11 24 -15 -12 -2 -21 -7 -38 -12 -38 -4 0 -11 -11 -14 -25 -4 -14 -14
-25 -22 -25 -13 0 -15 -7 -10 -32 4 -21 3 -28 -3 -19 -7 10 -13 5 -26 -22 -9
-20 -23 -41 -31 -48 -8 -6 -14 -19 -14 -28 1 -14 2 -14 11 2 5 9 19 17 30 17
16 0 18 -3 9 -19 -15 -29 -12 -38 5 -15 13 17 14 17 15 2 0 -10 -10 -20 -24
-24 -24 -6 -28 -17 -43 -99 -3 -16 -9 -38 -14 -47 -5 -9 -9 -27 -8 -40 0 -13
3 -17 6 -10 9 22 26 13 19 -10 -11 -37 -14 -78 -6 -78 12 0 22 67 15 104 -4
20 -2 36 4 40 6 4 11 18 11 32 0 13 5 24 10 24 6 0 10 7 10 15 0 8 4 15 8 15
14 0 13 -78 -2 -92 -7 -8 -16 -29 -19 -48 -7 -49 -24 -110 -32 -118 -3 -4 -10
0 -14 7 -6 9 -10 -3 -12 -33 -2 -25 -2 -46 1 -46 3 0 6 -11 6 -25 1 -15 -2
-22 -9 -18 -6 4 -8 -2 -5 -15 6 -23 -17 -52 -24 -31 -2 7 -9 5 -18 -7 -8 -10
-10 -15 -3 -11 13 8 9 -55 -7 -97 -5 -15 -10 -53 -10 -83 0 -31 -3 -54 -6 -50
-11 11 -5 140 7 148 14 8 4 59 -11 59 -14 0 -12 -17 3 -23 9 -4 8 -8 -3 -16
-8 -5 -17 -8 -19 -5 -3 3 -8 39 -12 82 -5 52 -6 35 -3 -56 3 -83 1 -140 -6
-152 -6 -11 -7 -20 -3 -19 27 4 31 -4 26 -53 -2 -30 0 -48 4 -41 5 7 10 -34
12 -95 5 -150 4 -176 -8 -180 -6 -2 -11 -21 -11 -43 0 -21 -4 -39 -9 -39 -5 0
-6 20 -3 45 3 32 1 45 -8 45 -8 0 -10 8 -7 23 4 12 1 29 -4 37 -9 13 -10 13
-6 -1 3 -9 1 -21 -4 -26 -5 -5 -3 -20 6 -36 10 -19 11 -35 5 -51 -4 -12 -5
-28 -1 -35 8 -12 8 -26 -5 -129 -4 -34 -9 -60 -12 -57 -8 8 -40 -68 -34 -80 3
-5 12 4 19 20 l14 30 -6 -35 c-19 -115 -19 -117 -1 -95 13 16 12 11 -3 -30
-34 -93 -40 -105 -53 -105 -9 0 -8 -3 2 -10 13 -9 13 -11 0 -19 -8 -5 -17 -8
-21 -5 -8 5 -22 -27 -14 -34 3 -3 5 -1 5 5 0 5 7 10 15 10 19 0 19 -21 0 -37
-8 -7 -12 -16 -10 -21 3 -4 -1 -11 -8 -16 -8 -4 -24 -36 -37 -70 -17 -47 -19
-66 -11 -80 10 -17 10 -16 11 4 0 12 5 25 10 28 6 4 10 -11 10 -39 0 -25 -4
-47 -9 -51 -6 -3 -6 -18 0 -38 5 -17 7 -54 3 -82 -3 -28 -1 -61 5 -75 10 -22
11 -20 8 18 -2 37 -1 41 10 26 8 -10 10 -32 7 -58 -6 -43 18 -122 34 -112 5 3
8 -12 7 -32 -1 -38 19 -74 28 -49 3 6 5 -5 4 -25 0 -46 -5 -48 -19 -7 -8 23
-13 28 -22 19 -8 -9 -8 -14 2 -17 6 -3 12 -11 12 -18 0 -7 7 -16 16 -19 21 -8
12 -61 -21 -131 -53 -113 -123 -272 -130 -295 -4 -14 -13 -38 -20 -55 -51
-121 -57 -154 -58 -319 0 -142 2 -167 21 -216 12 -30 22 -63 22 -74 0 -10 8
-33 19 -50 10 -17 22 -42 26 -55 7 -22 19 -39 88 -115 15 -17 27 -40 27 -51 1
-18 1 -19 11 -2 13 22 29 13 29 -16 0 -15 3 -18 11 -10 16 16 49 -15 49 -47 0
-18 -3 -21 -9 -11 -7 11 -9 11 -13 0 -4 -11 -8 -10 -22 4 -10 9 -22 17 -28 17
-12 0 22 -42 59 -72 30 -26 25 -63 -20 -131 -59 -89 -101 -187 -99 -230 0 -22
-3 -35 -9 -32 -6 4 -7 -9 -3 -34 5 -29 3 -41 -5 -41 -15 0 -8 -165 8 -184 6
-7 15 -33 20 -57 25 -116 100 -369 126 -424 14 -30 14 -30 8 15 -3 25 -10 53
-14 62 -5 9 -9 27 -9 40 1 19 3 17 17 -12 8 -19 15 -44 15 -54 -1 -11 6 -32
16 -48 13 -23 23 -28 54 -28 l38 0 1 63 c1 71 17 53 18 -20 l1 -43 845 0 c474
0 845 4 845 9 0 12 -49 118 -49 107 -1 -5 -18 13 -38 39 -20 27 -61 75 -92
107 -30 32 -61 68 -68 78 -15 21 -9 60 8 60 6 0 6 8 -1 20 -8 15 -6 21 10 30
11 6 20 19 20 29 0 18 65 106 79 106 3 1 23 9 43 19 56 27 88 61 88 93 0 41
11 73 24 73 7 0 61 -16 122 -36 176 -58 462 -111 729 -135 299 -27 807 53
1049 164 110 51 204 118 286 204 112 117 143 166 184 300 45 144 58 244 59
458 1 157 -3 216 -17 275 -22 95 -61 169 -105 195 -18 11 -50 35 -70 53 -31
28 -33 32 -12 27 16 -5 21 -4 17 4 -4 6 -14 11 -22 11 -19 0 -18 13 5 41 16
20 22 22 33 11 11 -11 10 -15 -2 -22 -12 -8 -9 -9 9 -8 18 2 29 -5 40 -26 9
-16 26 -39 39 -52 12 -13 22 -32 22 -42 0 -12 9 -22 23 -27 13 -4 17 -8 10
-12 -37 -15 16 -38 77 -34 48 3 173 -24 251 -54 51 -21 190 -65 319 -102 19
-5 44 111 29 138 -5 10 -9 33 -9 53 0 19 -4 37 -9 40 -23 15 -39 221 -18 242
4 4 7 22 7 40 0 18 7 61 15 97 8 35 14 90 14 124 -1 35 5 72 14 89 11 22 13
40 7 69 -27 133 -31 161 -27 181 2 13 0 21 -4 18 -5 -3 -11 8 -15 23 -4 15
-13 36 -21 45 -17 19 -24 90 -10 99 9 6 -29 70 -46 78 -5 2 -13 15 -18 29 -7
18 -6 28 3 35 9 6 8 7 -4 3 -20 -6 -30 7 -33 43 -1 14 -3 34 -3 45 -1 10 -7
16 -15 13 -20 -8 -54 24 -61 58 l-6 30 29 -33 c41 -47 46 -19 6 38 -17 25 -35
58 -41 74 -5 16 -15 31 -23 34 -10 3 -12 0 -8 -12 13 -33 -22 -16 -39 19 -18
40 -10 61 12 31 7 -11 16 -17 19 -14 7 7 -13 54 -38 91 -14 20 -16 31 -8 40 5
7 8 22 5 34 -3 12 -1 30 5 40 6 12 6 24 1 29 -6 6 -6 50 1 114 16 166 17 206
8 350 -12 196 -17 244 -40 371 -12 63 -22 146 -24 184 -1 39 -7 86 -13 105 -6
19 -16 60 -23 90 -6 30 -15 60 -20 65 -9 12 -30 96 -34 136 -2 15 -10 42 -20
62 -20 42 -16 73 8 69 20 -3 23 16 4 24 -9 3 -13 20 -13 46 1 26 -6 50 -16 64
-10 12 -18 39 -18 61 0 21 -4 53 -9 71 -5 18 -12 66 -16 106 -5 61 -2 81 14
113 10 21 22 56 25 78 l7 40 -19 -24 c-11 -13 -22 -20 -25 -15 -6 11 3 64 12
64 8 0 6 71 -4 93 -4 9 -5 26 -2 37 3 11 1 23 -4 26 -5 3 -9 20 -9 39 0 19 -4
37 -10 40 -5 3 -10 17 -10 31 0 13 5 24 10 24 6 0 10 -5 10 -11 0 -5 5 -7 10
-4 6 3 10 20 10 36 0 26 -3 29 -20 24 -21 -7 -28 9 -10 20 6 4 10 15 8 24 -2
10 3 25 10 34 11 13 10 15 -6 10 -24 -6 -60 26 -41 37 6 5 8 13 4 20 -5 7 -4
11 1 8 5 -3 17 3 27 14 14 15 14 18 2 18 -8 0 -15 -5 -15 -12 0 -6 -3 -8 -7
-5 -3 4 -12 2 -19 -4 -20 -17 -34 -1 -34 37 0 34 0 35 -35 28 -28 -5 -35 -3
-35 9 0 9 -12 33 -26 54 -14 21 -30 48 -35 61 -5 12 -14 22 -20 22 -8 0 -10
13 -6 39 4 31 2 38 -9 34 -18 -7 -18 16 0 36 7 9 17 27 21 41 7 21 6 22 -7 10
-7 -8 -21 -26 -31 -39 l-16 -25 -9 24 c-6 15 -11 19 -16 12 -10 -17 -26 -15
-26 3 0 8 -5 15 -11 15 -8 0 -10 19 -5 66 l7 66 -26 -4 c-19 -4 -25 -1 -25 13
0 11 -4 19 -10 19 -5 0 -10 -12 -10 -26 0 -16 -4 -23 -11 -18 -7 4 -8 20 -4
43 6 34 5 35 -9 16 -15 -20 -15 -19 -43 12 -67 75 -108 127 -114 142 -21 52
-231 181 -295 181 -13 0 -24 6 -24 13 0 9 -26 12 -101 10 -55 -1 -113 -4 -128
-8 -36 -8 -66 23 -57 59 5 19 -1 31 -24 54 -17 17 -30 36 -30 43 0 25 -113
119 -165 135 -27 9 -57 23 -66 31 -17 14 -40 19 -204 46 -131 22 -164 25 -222
18z m627 -701 c0 -15 6 -19 22 -17 17 1 24 -4 26 -19 2 -17 15 -24 58 -33 42
-10 54 -17 54 -31 0 -20 39 -55 72 -66 14 -4 18 -12 14 -26 -3 -15 4 -29 23
-47 28 -27 37 -31 129 -72 62 -27 137 -100 173 -167 13 -25 34 -58 47 -72 12
-13 22 -28 22 -32 0 -4 21 -31 48 -61 44 -52 56 -71 100 -164 9 -21 20 -40 23
-43 9 -7 69 -137 69 -150 0 -5 5 -10 10 -10 6 0 10 -5 10 -11 0 -6 6 -25 14
-42 44 -102 54 -220 31 -386 -19 -142 -19 -215 0 -406 8 -82 15 -190 15 -240
0 -49 5 -97 10 -105 7 -11 10 -11 10 -2 0 7 5 10 10 7 6 -4 8 -12 4 -18 -3 -7
2 -3 11 8 14 17 17 18 25 5 6 -8 8 -26 5 -40 -2 -14 -7 -83 -10 -155 -7 -155
-14 -215 -26 -215 -5 0 -9 -5 -9 -11 0 -6 -9 -22 -20 -36 -11 -14 -20 -35 -20
-47 0 -17 5 -13 26 17 37 54 53 108 65 214 5 51 22 123 36 161 38 102 72 223
74 262 0 19 5 46 9 60 6 19 8 10 8 -35 0 -96 -16 -182 -59 -305 -33 -98 -39
-128 -39 -199 0 -67 -6 -101 -31 -175 -17 -50 -35 -95 -39 -101 -4 -5 -13 -37
-20 -70 -10 -52 -19 -66 -62 -107 -42 -41 -53 -59 -75 -130 -37 -117 -141
-315 -217 -412 -78 -100 -197 -218 -326 -322 -94 -76 -95 -77 -109 -138 -8
-37 -14 -132 -15 -246 l-1 -185 32 -65 c17 -36 48 -83 68 -105 43 -47 75 -115
79 -165 2 -38 20 -44 22 -7 2 66 10 71 48 35 23 -23 37 -29 66 -32 8 0 24 -9
34 -18 11 -10 25 -18 30 -18 10 0 98 -43 161 -77 11 -6 50 -25 87 -43 121 -55
165 -109 213 -258 27 -83 27 -87 21 -270 -11 -301 -51 -452 -158 -597 -59 -79
-109 -127 -188 -179 -172 -114 -352 -173 -645 -212 -335 -44 -779 8 -1110 129
-186 68 -188 70 -208 128 -17 49 -20 80 -17 161 2 46 20 43 21 -4 0 -37 2 -40
10 -20 5 13 13 20 19 17 5 -3 10 -1 10 4 0 6 -7 11 -15 11 -10 0 -15 10 -15
34 0 19 -5 36 -11 38 -6 2 -11 17 -11 33 1 17 -4 49 -10 73 -15 58 7 196 30
187 12 -4 13 1 7 27 -4 18 -7 47 -7 63 1 17 -2 24 -4 18 -10 -23 -21 -14 -16
12 l4 25 29 -31 c19 -20 30 -46 35 -77 9 -62 23 -89 24 -44 0 18 -14 74 -30
123 -17 49 -28 94 -25 98 3 5 15 7 28 5 16 -3 15 -1 -6 7 -29 11 -38 35 -33
84 5 53 6 55 17 55 7 0 9 -12 6 -32 -3 -18 -3 -27 0 -20 8 19 23 4 24 -26 1
-16 3 -20 6 -10 2 9 0 32 -5 50 -13 47 -6 59 24 47 33 -12 47 -12 39 1 -3 6
-14 10 -23 10 -21 1 -62 34 -63 52 0 7 -4 4 -8 -7 -7 -18 -8 -17 -13 7 -3 15
-2 27 1 26 34 -4 48 7 71 55 31 66 38 166 17 234 -10 31 -17 95 -19 178 -2
119 -1 130 16 133 16 3 17 10 12 53 -5 39 -4 48 7 43 8 -3 20 2 27 11 11 13 9
15 -9 15 -11 0 -21 6 -21 14 0 16 73 49 78 35 8 -20 153 -1 160 20 2 6 9 11
15 11 7 0 20 17 30 36 19 40 11 64 -23 64 -10 0 -20 3 -22 8 -6 13 -67 52 -81
52 -8 0 -20 7 -27 15 -7 8 -43 37 -80 65 -41 30 -75 64 -85 86 -9 19 -23 38
-31 41 -8 3 -14 11 -14 19 0 8 -4 14 -9 14 -8 0 -59 103 -72 145 -5 18 -7 17
-14 -7 -9 -34 -19 -35 -39 -6 -12 16 -13 24 -4 29 8 5 2 10 -15 14 -15 4 -35
20 -44 36 -10 16 -22 29 -29 29 -6 0 -23 24 -39 53 -15 28 -33 59 -40 67 -7 8
-15 26 -18 40 -3 14 -15 61 -26 104 -12 44 -24 111 -26 150 -3 39 -11 99 -17
134 -9 47 -9 65 -1 70 7 4 19 37 29 72 10 36 23 72 31 81 14 16 18 109 5 109
-4 0 -12 10 -17 22 -6 12 -19 26 -30 32 -33 18 -85 77 -85 97 0 10 -4 21 -10
24 -5 3 -10 20 -10 36 0 16 -7 46 -15 66 -21 49 -20 141 2 165 9 10 16 33 15
53 -1 19 2 35 7 35 9 0 37 93 46 152 3 20 12 39 20 42 9 3 19 16 24 29 10 24
76 51 117 47 10 -1 75 -1 144 0 l125 3 -95 8 c-52 5 -101 11 -108 14 -21 8 5
35 33 35 40 0 57 10 44 26 -6 8 -8 21 -5 30 5 13 15 15 46 10 21 -3 41 -2 44
3 7 11 72 23 146 26 55 3 165 13 207 20 44 7 47 17 13 47 -31 27 -37 54 -6 29
8 -7 25 -11 38 -9 21 4 18 9 -39 65 -34 34 -70 64 -80 67 -60 18 -156 35 -165
30 -5 -4 -55 -8 -111 -10 -114 -4 -127 3 -148 79 -8 32 -7 42 5 56 9 10 16 25
16 34 0 18 56 33 88 23 10 -4 47 -7 81 -7 42 -1 64 -6 68 -14 2 -8 12 -17 21
-21 25 -11 142 -21 142 -12 0 5 16 8 35 8 51 0 85 19 85 48 0 15 -7 26 -20 29
-11 3 -20 9 -20 14 0 5 -6 9 -14 9 -8 0 -23 10 -33 23 -13 16 -36 27 -78 35
-100 18 -245 34 -260 28 -8 -3 -15 -1 -15 4 0 6 -9 10 -20 10 -11 0 -20 6 -20
14 0 8 -17 16 -45 19 -36 5 -54 15 -85 48 -22 23 -40 47 -40 52 0 17 35 112
43 115 4 2 7 15 7 28 0 13 4 24 9 24 5 0 12 17 16 37 7 39 85 194 121 243 6 8
26 53 44 100 18 47 37 89 42 94 4 6 8 25 8 43 0 71 24 181 53 238 25 50 38 64
77 84 43 21 55 23 126 16 44 -4 92 -14 108 -22 54 -28 90 -34 234 -39 118 -4
146 -2 164 10 12 9 34 16 49 16 14 0 48 8 75 19 27 10 74 24 104 30 106 23
192 55 201 76 7 19 8 19 8 -3 1 -22 2 -22 26 -6 31 20 32 32 3 36 -26 4 -39
58 -13 58 8 0 15 -9 15 -20z m1228 -817 c6 -18 7 -35 2 -38 -8 -5 -30 47 -30
73 0 23 15 3 28 -35z m32 -89 c0 -8 -4 -12 -10 -9 -5 3 -10 10 -10 16 0 5 5 9
10 9 6 0 10 -7 10 -16z m30 -540 c0 -8 -5 -12 -10 -9 -6 4 -8 11 -5 16 9 14
15 11 15 -7z m-4071 -200 c-10 -23 -13 -25 -16 -11 -3 10 1 25 8 33 17 21 21
11 8 -22z m1601 -29 c64 -6 145 -39 134 -56 -4 -7 -10 -6 -19 1 -8 7 -28 9
-49 4 -33 -6 -36 -4 -37 17 l0 24 -11 -22 c-11 -23 -28 -31 -28 -13 0 5 -6 7
-13 4 -8 -3 -20 2 -27 11 -10 12 -10 18 0 30 7 8 17 12 23 8 7 -4 18 -8 27 -8z
m-74 -10 c4 -8 3 -23 0 -32 -6 -15 -8 -15 -23 -1 -16 17 -12 48 7 48 6 0 13
-7 16 -15z m-56 -15 c0 -5 -4 -10 -10 -10 -5 0 -10 5 -10 10 0 6 5 10 10 10 6
0 10 -4 10 -10z m-1513 -32 c-3 -8 -6 -5 -6 6 -1 11 2 17 5 13 3 -3 4 -12 1
-19z m1753 -8 c0 -5 -2 -10 -4 -10 -3 0 -8 5 -11 10 -3 6 -1 10 4 10 6 0 11
-4 11 -10z m58 -15 c-3 -3 -9 2 -12 12 -6 14 -5 15 5 6 7 -7 10 -15 7 -18z
m-14 -71 c19 -19 12 -34 -15 -34 -19 0 -27 29 -12 43 9 9 9 9 27 -9z m-152
-36 c-7 -7 -12 -8 -12 -2 0 14 12 26 19 19 2 -3 -1 -11 -7 -17z m-65 -4 c-3
-3 -12 -4 -19 -1 -8 3 -5 6 6 6 11 1 17 -2 13 -5z m-1617 -36 c0 -25 -16 -55
-24 -47 -5 5 15 69 21 69 2 0 3 -10 3 -22z m37 -20 c-3 -8 -6 -5 -6 6 -1 11 2
17 5 13 3 -3 4 -12 1 -19z m3980 -30 c-3 -8 -6 -5 -6 6 -1 11 2 17 5 13 3 -3
4 -12 1 -19z m-4061 -50 c-10 -27 -11 -28 -14 -9 -2 11 -8 21 -13 21 -5 0 -9
4 -9 9 0 5 11 9 24 9 22 0 23 -2 12 -30z m-123 -636 c-3 -12 -9 -22 -14 -22
-12 0 -11 7 2 32 13 25 20 19 12 -10z m13 -58 c-14 -13 -16 -13 -16 -1 0 9 3
23 6 32 6 16 8 16 16 1 6 -11 4 -21 -6 -32z m-36 -44 c-4 -36 -8 -56 -10 -45
-3 27 0 76 6 98 10 34 12 13 4 -53z m43 5 c4 -8 2 -17 -3 -20 -6 -4 -10 3 -10
14 0 25 6 27 13 6z m-13 -50 c2 14 5 11 12 -12 8 -24 7 -40 -2 -63 -20 -47
-30 -36 -29 33 0 44 3 56 9 42 l9 -20 1 20z m-43 -82 c-3 -10 -5 -2 -5 17 0
19 2 27 5 18 2 -10 2 -26 0 -35z m32 -75 c-1 -39 -2 -41 -8 -13 -4 17 -5 36
-3 43 8 23 12 12 11 -30z m-29 -78 c0 -16 -4 -30 -8 -30 -5 0 -7 14 -4 30 2
17 6 30 8 30 2 0 4 -13 4 -30z m2 -225 c-2 -19 -6 -35 -8 -35 -2 0 -4 16 -4
35 0 19 4 35 8 35 4 0 6 -16 4 -35z m-25 -87 c-3 -7 -5 -2 -5 12 0 14 2 19 5
13 2 -7 2 -19 0 -25z m-47 -148 c0 -5 -5 -10 -11 -10 -5 0 -7 5 -4 10 3 6 8
10 11 10 2 0 4 -4 4 -10z m4510 -275 c7 -9 8 -15 2 -15 -5 0 -12 7 -16 15 -3
8 -4 15 -2 15 2 0 9 -7 16 -15z m130 -155 c0 -5 -2 -10 -4 -10 -3 0 -8 5 -11
10 -3 6 -1 10 4 10 6 0 11 -4 11 -10z m-4749 -79 c0 -33 5 -61 10 -61 5 0 4
-12 -2 -27 -6 -17 -6 -29 0 -32 5 -4 6 -21 2 -41 -7 -34 -7 -34 -14 -9 -12 48
-20 166 -13 204 10 52 17 38 17 -34z m4849 39 c22 -22 25 -30 11 -30 -5 0 -16
11 -25 25 -20 30 -13 32 14 5z m-22 -56 c-4 -3 -12 5 -18 18 -12 22 -12 22 6
6 10 -10 15 -20 12 -24z m-443 -146 c-4 -13 -9 -30 -11 -40 -3 -9 -11 -18 -18
-21 -11 -4 -12 1 -3 26 5 18 11 38 13 45 2 6 8 12 14 12 7 0 9 -9 5 -22z
m-142 -38 c6 -22 -17 -48 -28 -30 -8 12 3 50 15 50 4 0 10 -9 13 -20z m364 -2
c-3 -8 -6 -5 -6 6 -1 11 2 17 5 13 3 -3 4 -12 1 -19z m130 -60 c-3 -7 -5 -2
-5 12 0 14 2 19 5 13 2 -7 2 -19 0 -25z m-237 7 c0 -8 -4 -15 -10 -15 -5 0
-10 7 -10 15 0 8 5 15 10 15 6 0 10 -7 10 -15z m150 -21 c0 -14 -4 -22 -10
-19 -5 3 -10 17 -10 31 0 14 4 22 10 19 6 -3 10 -17 10 -31z m-290 5 c0 -11
-4 -17 -10 -14 -5 3 -10 13 -10 21 0 8 5 14 10 14 6 0 10 -9 10 -21z m-50 -29
c0 -5 -7 -7 -15 -4 -8 4 -12 10 -9 15 6 11 24 2 24 -11z m140 -10 c0 -5 -4
-10 -10 -10 -5 0 -10 5 -10 10 0 6 5 10 10 10 6 0 10 -4 10 -10z m54 1 c8 -13
-3 -19 -24 -14 -11 3 -17 9 -14 14 7 11 31 12 38 0z m-228 -25 c0 -14 -5 -21
-9 -17 -4 4 -5 15 -1 24 9 24 12 21 10 -7z m159 -19 c10 -5 11 -15 4 -40 -5
-17 -9 -33 -9 -34 0 -1 7 0 16 4 12 4 15 2 12 -8 -2 -8 -14 -15 -25 -17 -23
-3 -34 28 -29 83 5 53 8 62 13 40 3 -11 11 -23 18 -28z m-4354 -30 c12 -22 12
-22 -10 -3 -11 11 -21 23 -21 28 0 14 19 -1 31 -25z m4409 13 c0 -5 -4 -10
-10 -10 -5 0 -10 5 -10 10 0 6 5 10 10 10 6 0 10 -4 10 -10z m-180 -10 c0 -5
-5 -10 -11 -10 -5 0 -7 5 -4 10 3 6 8 10 11 10 2 0 4 -4 4 -10z m180 -36 c0
-8 -5 -12 -10 -9 -6 4 -8 11 -5 16 9 14 15 11 15 -7z m30 -65 c0 -31 -14 -39
-24 -13 -8 21 3 56 15 49 5 -4 9 -19 9 -36z m-93 -6 c-15 -16 -17 -16 -17 -1
0 9 6 18 13 21 20 7 22 -2 4 -20z m150 -45 c-3 -8 -6 -5 -6 6 -1 11 2 17 5 13
3 -3 4 -12 1 -19z m-4491 -67 c-22 -42 -25 -39 -13 9 7 23 15 36 20 31 5 -5 2
-22 -7 -40z m4544 -25 c0 -3 -4 -8 -10 -11 -5 -3 -10 -1 -10 4 0 6 5 11 10 11
6 0 10 -2 10 -4z m-4561 -82 c-7 -13 -16 -24 -21 -24 -4 0 -4 8 1 18 5 9 13
26 16 37 5 14 9 16 12 7 3 -8 0 -25 -8 -38z m52 -27 c-10 -9 -11 -8 -5 6 3 10
9 15 12 12 3 -3 0 -11 -7 -18z m69 9 c0 -3 -4 -8 -10 -11 -5 -3 -10 -1 -10 4
0 6 5 11 10 11 6 0 10 -2 10 -4z m-119 -39 c-10 -9 -11 -8 -5 6 3 10 9 15 12
12 3 -3 0 -11 -7 -18z m45 -19 l-16 -22 0 22 c0 13 4 20 10 17 6 -3 10 -1 10
6 0 7 3 10 6 6 3 -3 -1 -16 -10 -29z m-99 -28 c0 -16 -4 -27 -8 -24 -8 5 -13
-9 -24 -66 -4 -19 -16 -53 -26 -75 -35 -78 -80 -231 -92 -315 -8 -57 -13 -74
-15 -50 -2 29 28 246 42 300 12 46 20 60 33 60 10 0 12 6 8 20 -4 13 1 31 14
49 12 16 21 31 21 34 0 9 39 97 43 97 2 0 4 -13 4 -30z m4238 4 c19 -14 19
-14 -5 -10 -14 2 -29 5 -33 5 -10 1 1 21 11 21 4 0 16 -7 27 -16z m-4217 -69
c-6 -14 -13 -24 -14 -22 -6 6 9 47 17 47 5 0 3 -11 -3 -25z m4371 -58 l0 -32
-16 33 c-9 17 -20 32 -25 32 -4 0 -8 12 -8 28 l1 27 24 -28 c16 -18 25 -40 24
-60z m-4186 58 c-3 -9 -8 -14 -10 -11 -3 3 -2 9 2 15 9 16 15 13 8 -4z m4244
-17 c-3 -7 -5 -2 -5 12 0 14 2 19 5 13 2 -7 2 -19 0 -25z m53 -7 c14 -28 13
-41 -6 -41 -12 0 -11 -6 8 -32 l23 -33 -33 24 c-23 16 -30 27 -23 34 5 5 7 23
4 38 -6 33 11 39 27 10z m-4500 -32 c0 -5 -4 -9 -10 -9 -5 0 -10 7 -10 16 0 8
5 12 10 9 6 -3 10 -10 10 -16z m174 -63 c-3 -15 -8 -25 -11 -23 -2 3 -1 17 3
31 3 15 8 25 11 23 2 -3 1 -17 -3 -31z m-45 -8 c-7 -13 -11 -23 -9 -23 2 0 -7
-19 -19 -42 -11 -23 -21 -49 -21 -58 0 -8 -4 -15 -10 -15 -5 0 -10 -6 -10 -14
0 -8 -6 -16 -13 -19 -7 -3 -19 -23 -26 -46 -10 -37 -31 -57 -31 -31 0 6 4 10
9 10 5 0 11 13 14 29 3 16 12 35 19 42 12 13 48 90 77 162 6 15 15 27 21 27 7
0 7 -8 -1 -22z m-183 -44 c-8 -21 -15 -34 -15 -28 -1 15 20 76 25 71 2 -2 -2
-21 -10 -43z m4540 25 c19 -21 19 -21 -9 -8 -15 7 -27 16 -27 21 0 14 16 9 36
-13z m-4355 -66 c-10 -17 -10 -16 -11 3 0 23 13 41 18 25 2 -6 -1 -18 -7 -28z
m-122 -42 c-12 -29 -24 -49 -27 -47 -3 3 6 28 19 55 30 65 37 58 8 -8z m111
15 c0 -3 -4 -8 -10 -11 -5 -3 -10 -1 -10 4 0 6 5 11 10 11 6 0 10 -2 10 -4z
m-50 -82 c0 -3 -12 -30 -26 -60 -21 -45 -28 -53 -40 -43 -8 6 -14 16 -14 22 0
6 3 8 6 4 9 -8 54 48 54 67 0 9 5 16 10 16 6 0 10 -3 10 -6z m-83 -174 c-8
-29 -8 -46 0 -58 7 -12 8 -32 2 -57 l-8 -40 3 42 c2 24 0 46 -5 49 -5 3 -9 -3
-10 -13 0 -10 -5 -3 -10 15 -6 21 -6 38 -1 45 5 7 12 25 16 40 4 15 10 25 15
23 5 -3 3 -24 -2 -46z m-34 -115 c6 -46 5 -48 -8 -31 -8 11 -15 38 -15 60 0
54 16 34 23 -29z m197 -110 c0 -8 -4 -15 -10 -15 -5 0 -7 7 -4 15 4 8 8 15 10
15 2 0 4 -7 4 -15z m0 -41 c0 -8 -4 -12 -10 -9 -5 3 -10 10 -10 16 0 5 5 9 10
9 6 0 10 -7 10 -16z m1758 -105 c-20 -13 -22 8 -7 70 l14 56 3 -59 c2 -41 -1
-62 -10 -67z m-9 -81 c19 -51 20 -70 2 -33 -21 42 -24 55 -16 55 3 0 9 -10 14
-22z m-22 -120 c-3 -8 -6 -5 -6 6 -1 11 2 17 5 13 3 -3 4 -12 1 -19z m46 -22
c-3 -21 -10 -33 -15 -28 -5 5 -3 22 3 41 14 41 20 35 12 -13z m-1767 10 c19
-20 18 -23 -11 -23 -24 0 -33 16 -18 30 9 10 13 9 29 -7z m1710 -584 c-14 -14
-28 -23 -31 -20 -9 9 18 48 32 48 7 0 13 6 14 13 0 8 2 8 6 -2 3 -7 -6 -25
-21 -39z m-1677 -407 c0 -26 -2 -27 -9 -10 -5 11 -9 31 -9 45 -1 20 1 22 9 10
5 -8 9 -28 9 -45z m35 -41 c3 -25 2 -53 -4 -62 -10 -18 -11 -9 -14 75 -1 49
10 40 18 -13z m1602 -25 c19 -22 19 -22 -3 -8 -13 8 -23 17 -23 21 0 12 6 9
26 -13z m-1599 -96 c-3 -10 -5 -4 -5 12 0 17 2 24 5 18 2 -7 2 -21 0 -30z
m1674 5 c11 -21 11 -22 -4 -9 -10 7 -17 17 -17 22 0 15 9 10 21 -13z m-20 -50
c8 -15 8 -18 0 -14 -6 4 -16 16 -22 28 -8 15 -8 18 0 14 6 -4 16 -16 22 -28z"/>
<path d="M4620 5842 c-13 -2 -33 -10 -44 -18 -11 -8 -44 -14 -73 -14 -57 0
-128 -23 -136 -44 -3 -8 -18 -17 -33 -20 -15 -4 -33 -15 -40 -24 -10 -13 -17
-15 -31 -6 -14 8 -21 8 -29 -1 -17 -17 -26 -53 -16 -59 5 -3 48 -7 95 -9 81
-4 157 8 157 25 0 5 11 8 24 8 14 0 37 5 52 10 15 6 69 12 120 13 51 1 95 5
99 9 12 11 -15 48 -35 48 -26 0 -26 16 0 23 22 6 28 27 8 27 -7 0 -24 6 -38
13 -38 20 -53 23 -80 19z"/>
<path d="M4780 5833 c0 -20 55 -48 110 -57 19 -3 45 -8 58 -12 21 -6 23 -4 20
22 -3 25 -9 30 -43 39 -22 5 -43 14 -47 20 -5 6 -12 3 -21 -9 -13 -18 -15 -18
-38 -3 -30 22 -39 21 -39 0z m180 -33 c0 -5 -2 -10 -4 -10 -3 0 -8 5 -11 10
-3 6 -1 10 4 10 6 0 11 -4 11 -10z"/>
<path d="M4976 5753 c-13 -14 -4 -21 29 -25 19 -2 35 -1 35 3 0 10 -57 29 -64
22z"/>
<path d="M5070 5692 c0 -5 6 -17 14 -28 19 -25 31 -12 14 15 -13 21 -28 28
-28 13z"/>
<path d="M4400 5485 c-64 -18 -166 -68 -195 -96 -27 -27 -7 -48 30 -31 40 18
40 15 1 -25 -42 -44 -44 -51 -13 -58 43 -11 317 -33 337 -28 12 3 22 0 26 -10
6 -16 30 -17 194 -2 55 4 95 3 113 -4 30 -12 77 -5 77 10 0 5 -8 12 -17 16
-33 11 -183 106 -183 115 0 4 -9 8 -21 8 -12 0 -35 6 -52 14 -56 25 -138 47
-148 40 -6 -3 -47 -3 -92 1 -87 8 -86 10 10 39 72 22 168 13 260 -26 39 -16
73 -33 75 -37 6 -13 69 -53 75 -47 17 17 -89 83 -187 116 -59 19 -227 22 -290
5z m303 -169 c23 -18 22 -22 -13 -39 -34 -17 -44 -9 -34 28 7 28 20 31 47 11z
m-109 -5 c3 -5 -1 -12 -10 -15 -22 -9 -24 -8 -24 9 0 16 25 21 34 6z m-60 -15
c-5 -14 -44 -29 -53 -21 -2 3 1 5 7 5 7 0 12 7 12 15 0 8 9 15 20 15 12 0 17
-5 14 -14z"/>
<path d="M5232 4845 c0 -16 2 -22 5 -12 2 9 2 23 0 30 -3 6 -5 -1 -5 -18z"/>
<path d="M3192 4660 c-7 -11 -17 -20 -22 -20 -11 0 -50 -36 -50 -46 0 -3 -13
-19 -30 -37 -16 -18 -30 -37 -30 -42 0 -6 -9 -17 -20 -25 -19 -13 -28 -40 -14
-40 4 0 24 18 47 40 22 22 52 48 67 56 33 20 95 109 85 123 -9 16 -19 13 -33
-9z"/>
<path d="M3540 4567 c-36 -11 -69 -42 -70 -64 0 -7 11 -20 25 -29 23 -15 27
-15 63 3 29 14 44 16 65 9 29 -11 50 0 27 14 -8 5 -11 13 -6 17 5 4 11 2 13
-4 6 -17 63 -17 63 0 0 8 -11 24 -25 37 -29 27 -101 35 -155 17z"/>
<path d="M4040 4551 c-15 -4 -26 -15 -28 -28 -3 -17 1 -20 24 -15 24 4 26 2
22 -16 -4 -13 0 -23 8 -26 8 -3 14 0 14 6 0 7 6 4 13 -6 16 -22 52 -17 52 6 0
9 4 20 8 24 14 14 6 29 -24 47 -32 18 -48 19 -89 8z"/>
<path d="M4410 4550 c0 -27 33 -73 103 -142 44 -42 76 -82 72 -87 -3 -6 1 -11
9 -11 9 0 16 4 16 8 0 15 -101 153 -116 159 -8 3 -14 10 -14 15 0 12 -52 68
-62 68 -5 0 -8 -4 -8 -10z"/>
<path d="M2940 4279 c-27 -11 -86 -74 -96 -102 -5 -17 7 -70 29 -117 16 -35
15 -34 31 -21 12 10 19 8 35 -8 12 -12 34 -21 50 -21 16 0 34 -6 40 -14 7 -8
26 -18 42 -21 17 -4 33 -13 36 -20 2 -8 18 -17 35 -20 23 -5 27 -9 17 -16 -10
-6 -11 -9 -1 -9 6 0 12 -7 12 -15 0 -9 6 -12 16 -8 15 5 33 -11 34 -29 0 -13
-38 -9 -42 4 -2 6 -10 9 -17 7 -15 -5 28 -55 74 -87 17 -11 50 -39 74 -61 31
-28 53 -41 73 -41 18 0 27 4 23 11 -4 6 -14 8 -22 5 -15 -6 -30 6 -49 39 -6
11 -20 24 -32 30 -12 5 -25 18 -28 27 -3 10 -14 18 -25 18 -22 0 -39 32 -21
38 7 2 19 11 28 19 11 12 18 13 27 4 20 -20 28 -11 21 27 -6 37 -24 69 -24 43
0 -7 -9 -11 -22 -9 -17 2 -27 14 -36 43 -13 39 -8 115 7 115 4 0 16 -16 27
-36 l19 -35 5 28 c5 25 9 28 40 25 19 -2 46 -10 59 -19 15 -9 34 -13 54 -9 16
3 48 1 71 -6 22 -6 45 -11 49 -10 18 5 57 4 137 -3 142 -12 301 -8 348 8 41
14 45 14 63 -4 18 -18 21 -18 43 -4 17 12 26 13 31 5 4 -7 29 -10 64 -8 l56 3
-3 -35 c-6 -57 -38 -119 -67 -130 -15 -6 -29 -19 -32 -30 -3 -11 -9 -20 -14
-20 -5 0 -9 -4 -9 -10 0 -5 7 -10 15 -10 8 0 15 5 15 10 0 6 4 10 10 10 5 0 7
-8 4 -17 -4 -11 -2 -14 3 -8 15 19 64 46 73 40 5 -3 11 3 15 14 3 10 16 22 28
25 12 3 34 16 48 30 14 13 41 31 59 41 66 34 100 96 67 123 -14 12 -173 36
-186 27 -5 -3 -38 8 -73 25 -45 21 -78 30 -115 30 -31 0 -53 5 -55 12 -3 9
-12 9 -35 -1 -43 -18 -275 -21 -280 -3 -3 7 -21 12 -44 12 -32 0 -39 -3 -39
-20 0 -18 -7 -20 -82 -20 -65 0 -90 4 -116 20 -23 14 -56 21 -120 24 -285 14
-322 18 -322 38 0 10 5 18 10 18 14 0 12 36 -2 47 -20 16 -81 23 -108 12z
m900 -189 c0 -5 -10 -10 -22 -9 -22 0 -22 1 -3 9 11 5 21 9 23 9 1 1 2 -3 2
-9z"/>
<path d="M4631 4274 c0 -11 3 -14 6 -6 3 7 2 16 -1 19 -3 4 -6 -2 -5 -13z"/>
<path d="M4665 4198 c-9 -24 -2 -61 13 -66 14 -4 17 45 2 68 -8 12 -10 12 -15
-2z"/>
<path d="M4579 4118 c-1 -7 -2 -30 -3 -51 -2 -22 -7 -42 -12 -45 -18 -13 -13
-30 7 -25 30 8 69 65 69 101 0 29 -3 32 -30 32 -17 0 -30 -6 -31 -12z"/>
<path d="M3054 3944 c3 -9 6 -18 6 -20 0 -2 4 -4 9 -4 5 0 7 9 4 20 -3 11 -10
20 -15 20 -6 0 -7 -7 -4 -16z"/>
<path d="M3373 3884 c-10 -23 -9 -26 13 -35 14 -5 28 -9 32 -9 4 0 18 -9 32
-20 14 -11 33 -20 43 -20 9 0 36 -9 60 -19 23 -11 58 -22 77 -25 19 -3 64 -10
100 -16 36 -6 118 -9 185 -6 140 6 120 3 137 19 22 20 75 47 94 47 16 0 16 1
-2 14 -17 13 -21 12 -40 -5 -14 -13 -35 -19 -68 -19 -29 0 -53 -6 -62 -15 -9
-8 -30 -15 -47 -15 -50 0 -161 20 -167 30 -3 5 -12 5 -20 0 -16 -10 -141 -2
-177 11 -13 5 -23 16 -23 24 0 12 -4 14 -19 5 -28 -14 -115 18 -119 45 -6 33
-16 36 -29 9z"/>
<path d="M4080 3671 c0 -11 29 -35 35 -29 2 2 -4 12 -15 21 -11 9 -20 13 -20
8z"/>
<path d="M3992 3630 c-57 -26 -164 -44 -217 -37 -32 5 -45 3 -49 -8 -4 -10 7
-16 41 -21 56 -8 223 0 232 12 3 5 19 16 36 24 35 18 46 50 18 50 -10 0 -37
-9 -61 -20z"/>
<path d="M3490 3627 c0 -8 8 -18 18 -22 26 -10 181 -15 157 -5 -11 5 -30 9
-42 9 -12 1 -23 5 -25 10 -1 6 -27 13 -55 17 -44 5 -53 4 -53 -9z"/>
<path d="M4627 2364 c-3 -3 -3 -13 0 -21 5 -12 7 -12 14 -1 15 23 4 40 -14 22z"/>
<path d="M4625 2310 c3 -5 10 -10 16 -10 5 0 9 5 9 10 0 6 -7 10 -16 10 -8 0
-12 -4 -9 -10z"/>
<path d="M4626 2271 c-4 -5 -2 -12 3 -15 5 -4 12 -2 15 3 4 5 2 12 -3 15 -5 4
-12 2 -15 -3z"/>
<path d="M4620 2220 c0 -5 5 -10 10 -10 6 0 10 5 10 10 0 6 -4 10 -10 10 -5 0
-10 -4 -10 -10z"/>
<path d="M3120 2069 c0 -5 5 -7 10 -4 6 3 10 8 10 11 0 2 -4 4 -10 4 -5 0 -10
-5 -10 -11z"/>
<path d="M4600 1990 c-13 -8 -12 -10 3 -10 9 0 17 5 17 10 0 12 -1 12 -20 0z"/>
<path d="M4590 1950 c0 -5 5 -10 11 -10 5 0 7 5 4 10 -3 6 -8 10 -11 10 -2 0
-4 -4 -4 -10z"/>
<path d="M4160 1625 c0 -10 7 -15 18 -13 21 4 19 22 -2 26 -10 2 -16 -3 -16
-13z"/>
<path d="M3001 1448 c-1 -27 -6 -48 -13 -51 -10 -3 -9 -12 5 -38 l18 -34 -5
33 c-3 17 -1 43 5 56 8 17 8 33 1 53 -10 26 -10 26 -11 -19z"/>
<path d="M3071 1414 c0 -11 3 -14 6 -6 3 7 2 16 -1 19 -3 4 -6 -2 -5 -13z"/>
<path d="M3025 7673 c-18 -14 -18 -15 -2 -9 10 3 23 6 28 6 5 0 9 5 9 10 0 14
-12 12 -35 -7z"/>
<path d="M5016 7315 c4 -8 8 -15 10 -15 2 0 4 7 4 15 0 8 -4 15 -10 15 -5 0
-7 -7 -4 -15z"/>
<path d="M5233 6985 c-8 -22 6 -33 17 -15 13 20 12 30 0 30 -6 0 -13 -7 -17
-15z"/>
<path d="M5550 6350 c0 -5 5 -10 11 -10 5 0 7 5 4 10 -3 6 -8 10 -11 10 -2 0
-4 -4 -4 -10z"/>
<path d="M5621 6194 c0 -11 3 -14 6 -6 3 7 2 16 -1 19 -3 4 -6 -2 -5 -13z"/>
<path d="M5611 6126 c-6 -16 -10 -31 -7 -33 7 -8 28 37 23 50 -3 7 -10 -1 -16
-17z"/>
<path d="M1597 5943 c-4 -3 -7 -11 -7 -17 0 -6 5 -5 12 2 6 6 9 14 7 17 -3 3
-9 2 -12 -2z"/>
<path d="M1545 5879 c-4 -6 -5 -12 -2 -15 2 -3 7 2 10 11 7 17 1 20 -8 4z"/>
<path d="M1510 5835 c-7 -9 -11 -17 -9 -20 3 -2 10 5 17 15 14 24 10 26 -8 5z"/>
<path d="M1426 5564 c-4 -9 -4 -19 -1 -22 2 -3 7 3 11 12 4 9 4 19 1 22 -2 3
-7 -3 -11 -12z"/>
<path d="M1392 5467 c-14 -40 -15 -57 -3 -57 8 0 25 79 18 86 -2 2 -9 -11 -15
-29z"/>
<path d="M5620 5434 c0 -8 5 -12 10 -9 6 3 10 10 10 16 0 5 -4 9 -10 9 -5 0
-10 -7 -10 -16z"/>
<path d="M1360 5360 c-6 -11 -9 -26 -7 -33 3 -7 10 1 16 17 14 35 7 47 -9 16z"/>
<path d="M1288 5220 c-9 -22 -15 -40 -13 -40 8 0 36 61 33 70 -2 5 -11 -9 -20
-30z"/>
<path d="M1237 5128 c-6 -21 -2 -36 7 -27 10 11 16 49 8 49 -5 0 -12 -10 -15
-22z"/>
<path d="M1216 5075 c-3 -9 -6 -18 -6 -19 0 -1 9 -2 19 -2 16 0 18 3 8 16 -6
8 -12 16 -13 18 -1 2 -4 -4 -8 -13z"/>
<path d="M1231 5004 c0 -11 3 -14 6 -6 3 7 2 16 -1 19 -3 4 -6 -2 -5 -13z"/>
<path d="M1205 4939 c-4 -6 -5 -12 -2 -15 2 -3 7 2 10 11 7 17 1 20 -8 4z"/>
<path d="M1212 4820 c0 -14 2 -19 5 -12 2 6 2 18 0 25 -3 6 -5 1 -5 -13z"/>
<path d="M1130 4780 c0 -5 4 -10 9 -10 6 0 13 5 16 10 3 6 -1 10 -9 10 -9 0
-16 -4 -16 -10z"/>
<path d="M1197 4771 c-2 -10 -1 -24 3 -31 5 -7 9 0 12 19 5 34 -7 43 -15 12z"/>
<path d="M1119 4712 c-3 -20 -2 -29 4 -23 5 5 7 19 5 32 -3 20 -5 19 -9 -9z"/>
<path d="M1220 4719 c0 -5 5 -7 10 -4 6 3 10 8 10 11 0 2 -4 4 -10 4 -5 0 -10
-5 -10 -11z"/>
<path d="M1194 4668 c0 -50 0 -51 9 -20 6 19 6 40 1 52 -7 15 -9 7 -10 -32z"/>
<path d="M1111 4585 c-1 -33 -4 -70 -7 -82 -4 -13 -2 -23 4 -23 12 0 21 105
11 140 -5 17 -8 7 -8 -35z"/>
<path d="M1071 4434 c0 -11 3 -14 6 -6 3 7 2 16 -1 19 -3 4 -6 -2 -5 -13z"/>
<path d="M1104 4413 c-3 -10 -10 -26 -15 -35 -14 -27 -11 -35 4 -13 14 21 28
65 21 65 -3 0 -7 -8 -10 -17z"/>
<path d="M1142 4360 c0 -14 2 -19 5 -12 2 6 2 18 0 25 -3 6 -5 1 -5 -13z"/>
<path d="M1102 4340 c0 -14 2 -19 5 -12 2 6 2 18 0 25 -3 6 -5 1 -5 -13z"/>
<path d="M1120 4336 c0 -8 4 -17 9 -20 5 -4 7 3 4 14 -6 23 -13 26 -13 6z"/>
<path d="M1090 4300 c0 -5 5 -10 10 -10 6 0 10 5 10 10 0 6 -4 10 -10 10 -5 0
-10 -4 -10 -10z"/>
<path d="M1097 4233 c-4 -3 -7 -16 -6 -27 0 -19 1 -19 10 3 10 24 8 36 -4 24z"/>
<path d="M1123 4160 c0 -25 2 -35 4 -22 2 12 2 32 0 45 -2 12 -4 2 -4 -23z"/>
<path d="M1152 4081 c0 -29 3 -39 9 -29 4 8 4 28 0 44 -8 26 -9 25 -9 -15z"/>
<path d="M1060 3981 c0 -6 4 -13 10 -16 6 -3 7 1 4 9 -7 18 -14 21 -14 7z"/>
<path d="M1026 3564 c-3 -9 -2 -22 2 -31 6 -10 9 -5 9 16 0 35 -2 38 -11 15z"/>
<path d="M1000 3364 c0 -8 5 -12 10 -9 6 3 10 10 10 16 0 5 -4 9 -10 9 -5 0
-10 -7 -10 -16z"/>
<path d="M872 3155 c0 -16 2 -22 5 -12 2 9 2 23 0 30 -3 6 -5 -1 -5 -18z"/>
<path d="M945 3128 c-6 -29 -7 -87 -4 -128 l5 -75 2 75 c2 41 5 99 8 128 4 28
4 52 2 52 -2 0 -8 -24 -13 -52z"/>
<path d="M6058 3153 c5 -21 7 -23 10 -9 2 10 0 22 -6 28 -6 6 -7 0 -4 -19z"/>
<path d="M840 2975 c0 -14 4 -25 9 -25 4 0 6 11 3 25 -2 14 -6 25 -8 25 -2 0
-4 -11 -4 -25z"/>
<path d="M950 2905 c1 -11 7 -31 15 -45 l14 -25 -1 25 c-1 14 -8 34 -15 45
-13 19 -13 19 -13 0z"/>
<path d="M1020 2810 c-7 -24 -7 -60 0 -60 5 0 11 -8 13 -17 2 -10 3 -6 1 10
-2 18 1 27 11 27 9 0 12 6 9 15 -4 8 -10 13 -14 10 -5 -3 -11 1 -13 7 -3 7 -6
11 -7 8z"/>
<path d="M1011 2695 c1 -19 18 -51 18 -35 0 8 -4 22 -9 30 -5 8 -9 11 -9 5z"/>
</g>
</svg>
